<svg xmlns="http://www.w3.org/2000/svg" viewBox="0 0 1080 1080" role="img" aria-labelledby="logoTitle logoDesc">
  <title id="logoTitle">Thathwamasi Bakery Cafe crest logo</title>
  <desc id="logoDesc">A vintage green bakery crest with Thathwamasi Bakery Cafe lettering, wheat stalks, clovers, and bakery items.</desc>
  <defs>
    <linearGradient id="crestGreen" x1="0" y1="0" x2="1" y2="1">
      <stop offset="0%" stop-color="#1d5c55"/>
      <stop offset="100%" stop-color="#184742"/>
    </linearGradient>
    <linearGradient id="cream" x1="0" y1="0" x2="0" y2="1">
      <stop offset="0%" stop-color="#f5f0e1"/>
      <stop offset="100%" stop-color="#ebe3cf"/>
    </linearGradient>
    <linearGradient id="gold" x1="0" y1="0" x2="0" y2="1">
      <stop offset="0%" stop-color="#ffd65a"/>
      <stop offset="100%" stop-color="#d89f18"/>
    </linearGradient>
    <linearGradient id="toast" x1="0" y1="0" x2="1" y2="1">
      <stop offset="0%" stop-color="#f0bb67"/>
      <stop offset="100%" stop-color="#b96a21"/>
    </linearGradient>
    <linearGradient id="loaf" x1="0" y1="0" x2="1" y2="1">
      <stop offset="0%" stop-color="#f7bf61"/>
      <stop offset="100%" stop-color="#b76a1f"/>
    </linearGradient>
    <linearGradient id="cake" x1="0" y1="0" x2="0" y2="1">
      <stop offset="0%" stop-color="#fff3d8"/>
      <stop offset="100%" stop-color="#e7c796"/>
    </linearGradient>
    <linearGradient id="cup" x1="0" y1="0" x2="0" y2="1">
      <stop offset="0%" stop-color="#fffdf8"/>
      <stop offset="100%" stop-color="#ddd1c3"/>
    </linearGradient>
    <filter id="shadow" x="-20%" y="-20%" width="140%" height="140%">
      <feDropShadow dx="0" dy="18" stdDeviation="14" flood-color="#0c2d29" flood-opacity="0.18"/>
    </filter>
    <filter id="foodShadow" x="-20%" y="-20%" width="140%" height="140%">
      <feDropShadow dx="0" dy="10" stdDeviation="8" flood-color="#7b4e24" flood-opacity="0.18"/>
    </filter>
    <path id="topArc" d="M260 316 A286 286 0 0 1 820 316"/>
    <path id="bottomArc" d="M300 760 A244 244 0 0 0 780 760"/>
  </defs>

  <path filter="url(#shadow)" d="M540 76C664 132 792 157 900 170C914 278 934 366 934 504C934 678 813 822 540 1010C267 822 146 678 146 504C146 366 166 278 180 170C288 157 416 132 540 76Z" fill="url(#crestGreen)"/>
  <path d="M540 112C653 164 762 188 856 199C868 291 886 370 886 504C886 653 784 779 540 950C296 779 194 653 194 504C194 370 212 291 224 199C318 188 427 164 540 112Z" fill="none" stroke="#f4efdf" stroke-width="11"/>
  <path d="M540 134C646 183 747 205 832 215C843 304 860 378 860 504C860 641 767 756 540 914C313 756 220 641 220 504C220 378 237 304 248 215C333 205 434 183 540 134Z" fill="none" stroke="#f4efdf" stroke-width="4"/>

  <ellipse cx="540" cy="504" rx="300" ry="208" fill="url(#cream)" stroke="#f4efdf" stroke-width="10"/>
  <ellipse cx="540" cy="504" rx="332" ry="236" fill="none" stroke="#f4efdf" stroke-width="10"/>

  <text font-family="Georgia, 'Times New Roman', serif" font-size="78" font-weight="700" letter-spacing="3" fill="#f4efdf">
    <textPath href="#topArc" startOffset="50%" text-anchor="middle">THATHWAMASI</textPath>
  </text>
  <text font-family="Georgia, 'Times New Roman', serif" font-size="68" font-weight="700" letter-spacing="3" fill="#f4efdf">
    <textPath href="#bottomArc" startOffset="50%" text-anchor="middle">BAKERY CAFE</textPath>
  </text>

  <g opacity="0.98">
    <path d="M316 442c10-44 31-84 60-118c-16 39-18 71-8 116c11 51 31 84 60 118c-42-18-74-45-96-80c-8-12-13-24-16-36z" fill="#dfb33d"/>
    <path d="M350 448c9-41 25-74 49-103c-9 31-9 61 0 97c9 37 25 68 49 95c-31-15-56-38-73-69c-11-19-18-31-25-20z" fill="#f4cd5a" opacity="0.88"/>
    <path d="M764 442c-10-44-31-84-60-118c16 39 18 71 8 116c-11 51-31 84-60 118c42-18 74-45 96-80c8-12 13-24 16-36z" fill="#dfb33d"/>
    <path d="M730 448c-9-41-25-74-49-103c9 31 9 61 0 97c-9 37-25 68-49 95c31-15 56-38 73-69c11-19 18-31 25-20z" fill="#f4cd5a" opacity="0.88"/>
  </g>

  <g filter="url(#foodShadow)">
    <g transform="translate(272 420)">
      <rect x="0" y="38" width="150" height="82" rx="20" fill="url(#toast)"/>
      <rect x="22" y="16" width="150" height="82" rx="20" fill="url(#toast)"/>
      <rect x="58" y="36" width="46" height="22" rx="7" fill="#f5dc81" stroke="#e1c157" stroke-width="2"/>
      <path d="M20 84c22 8 44 12 70 12c24 0 46-4 68-12" fill="none" stroke="#f7d79f" stroke-width="7" stroke-linecap="round" opacity="0.78"/>
    </g>

    <g transform="translate(444 364)">
      <path d="M18 126V34h150c25 0 41 32 26 54l-52 74z" fill="url(#cake)" stroke="#d9b77f" stroke-width="4"/>
      <path d="M18 126c45-15 92-21 150-20l0 22H18z" fill="#e8c187"/>
      <path d="M52 44l54-34l70 24l-56 56z" fill="url(#gold)" stroke="#d0a01a" stroke-width="4"/>
      <circle cx="124" cy="86" r="10" fill="#f5e88e" opacity="0.92"/>
      <circle cx="95" cy="58" r="9" fill="#f5e88e" opacity="0.92"/>
      <circle cx="138" cy="50" r="8" fill="#f5e88e" opacity="0.92"/>
      <path d="M66 62c44-18 92-16 136 6" fill="none" stroke="#fff8df" stroke-width="8" stroke-linecap="round" opacity="0.6"/>
    </g>

    <g transform="translate(486 456)">
      <path d="M4 94c6-56 44-92 104-92s100 34 106 92H4z" fill="#fff6e9"/>
      <path d="M16 100h188l-20 118H36z" fill="#f4d7aa" stroke="#ddb98a" stroke-width="4"/>
      <path d="M22 102c28-12 68-18 92-18c34 0 72 8 98 18" fill="none" stroke="#edd2a2" stroke-width="8" stroke-linecap="round"/>
      <path d="M80 4c36 4 74 4 112 0c6 12 8 28 2 44c-7 20-21 34-28 56c-4 13-5 24-2 40H80c5-44-15-58-36-86c-14-19-9-46 2-54c11 1 22 2 34 0z" fill="#fff7ee"/>
      <path d="M86 4c38 6 72 6 102 0c12 12 22 34 12 72c-8 30-20 40-24 68H106c4-34-1-49-10-66c-11-21-25-44-10-74z" fill="#f9f0df" opacity="0.95"/>
      <path d="M124 0c36 0 64 22 64 52c0 18-7 24-14 38c-8 16-10 30-6 54h-76c4-30-1-42-9-58c-8-16-16-23-16-36c0-28 25-50 57-50z" fill="#ff2c2c" opacity="0.88"/>
      <path d="M94 146c24-8 50-12 78-12c26 0 52 4 76 12" fill="none" stroke="#edb86d" stroke-width="8" stroke-linecap="round"/>
      <g transform="translate(118 -14)">
        <path d="M30 52c26-10 40-32 40-52c-22 2-42 18-54 38c-11 18-14 36-10 56c12-15 15-27 24-42z" fill="#d4471f"/>
        <path d="M0 50c-4-20 6-38 26-46c18-8 36-2 50 16c-28 14-40 34-42 72C20 82 5 68 0 50z" fill="#d11c2f"/>
        <path d="M26 66c-12-20-7-46 10-60c20 5 36 24 36 46c0 22-18 40-38 42c8-10 6-16-8-28z" fill="#ee3647"/>
        <ellipse cx="36" cy="58" rx="6" ry="4" fill="#ffe4a8"/>
        <path d="M34 -8c-8 16-7 34 4 52" fill="none" stroke="#4c8d32" stroke-width="6" stroke-linecap="round"/>
        <ellipse cx="28" cy="-14" rx="8" ry="14" fill="#4fa63a" transform="rotate(-28 28 -14)"/>
        <ellipse cx="40" cy="-8" rx="8" ry="14" fill="#67b548" transform="rotate(6 40 -8)"/>
      </g>
    </g>

    <g transform="translate(720 434)">
      <circle cx="44" cy="46" r="42" fill="#d49f54"/>
      <circle cx="44" cy="46" r="32" fill="#c28b42"/>
      <circle cx="44" cy="46" r="4" fill="#7b4a25"/>
      <circle cx="26" cy="28" r="5" fill="#61371d"/>
      <circle cx="54" cy="24" r="5" fill="#61371d"/>
      <circle cx="68" cy="48" r="5" fill="#61371d"/>
      <circle cx="30" cy="62" r="5" fill="#61371d"/>
      <circle cx="56" cy="68" r="5" fill="#61371d"/>
      <circle cx="88" cy="64" r="40" fill="#d8a057"/>
      <circle cx="88" cy="64" r="30" fill="#c68f48"/>
      <circle cx="70" cy="48" r="4" fill="#633920"/>
      <circle cx="92" cy="40" r="5" fill="#633920"/>
      <circle cx="106" cy="58" r="5" fill="#633920"/>
      <circle cx="76" cy="78" r="5" fill="#633920"/>
      <circle cx="96" cy="84" r="5" fill="#633920"/>
    </g>

    <g transform="translate(402 650)">
      <path d="M0 66c38-26 88-40 142-40c56 0 102 15 138 44c-36 23-85 38-138 38C88 108 40 95 0 66z" fill="#df9f3d"/>
      <path d="M18 54c32-18 74-28 124-28c52 0 92 10 122 30" fill="none" stroke="#f6d8a4" stroke-width="9" stroke-linecap="round"/>
      <path d="M22 74c34-10 74-16 120-16c48 0 88 6 118 18" fill="none" stroke="#f6d8a4" stroke-width="7" stroke-linecap="round"/>
      <path d="M34 86c34 12 74 18 108 18c34 0 76-6 114-18" fill="none" stroke="#b36e28" stroke-width="5" stroke-linecap="round" opacity="0.5"/>
      <path d="M10 72c0-34 54-62 132-62c80 0 134 29 134 64" fill="#ce8432" opacity="0.35"/>
      <path d="M48 78c0 28 28 46 48 46s50-18 60-46" fill="#f4c66d"/>
    </g>

    <g transform="translate(626 682)">
      <path d="M10 60c0-34 40-68 88-68c22 0 41 7 58 20c17 13 28 29 28 46c0 16-10 28-26 36c-16 8-35 11-54 11c-53 0-94-24-94-45z" fill="#da8e2f"/>
      <path d="M22 56c12-22 34-40 54-48c28-12 58-7 82 14c12 10 24 28 24 36c0 18-34 28-62 28c-42 0-80-12-98-30z" fill="#f4b045"/>
      <path d="M34 52c18 20 42 34 80 36" fill="none" stroke="#f9d79b" stroke-width="7" stroke-linecap="round"/>
      <path d="M78 12c14 24 30 46 54 72" fill="none" stroke="#de8c26" stroke-width="6" stroke-linecap="round"/>
    </g>

    <g transform="translate(758 550)">
      <ellipse cx="78" cy="92" rx="94" ry="28" fill="#d9cabb" opacity="0.7"/>
      <rect x="10" y="6" width="126" height="92" rx="28" fill="url(#cup)" stroke="#d7cbbc" stroke-width="5"/>
      <path d="M136 24c34 0 56 24 56 52s-22 50-50 50" fill="none" stroke="#d7cbbc" stroke-width="12" stroke-linecap="round"/>
      <ellipse cx="72" cy="26" rx="54" ry="18" fill="#c6894f"/>
      <path d="M28 24c8-11 24-17 42-17c20 0 34 6 42 17c-8 11-22 17-42 17c-18 0-34-6-42-17z" fill="none" stroke="#f9ead8" stroke-width="5" stroke-linecap="round"/>
      <path d="M38 24c5-8 14-12 26-12c11 0 20 4 26 12" fill="none" stroke="#fff7eb" stroke-width="4" stroke-linecap="round"/>
    </g>

    <g transform="translate(754 762)">
      <ellipse cx="58" cy="38" rx="72" ry="26" fill="#7a491f" opacity="0.55"/>
      <ellipse cx="58" cy="38" rx="62" ry="22" fill="#8a5322"/>
      <rect x="28" y="10" width="54" height="28" rx="7" fill="#f5dc81" stroke="#d6bb4b" stroke-width="3"/>
    </g>
  </g>

  <g fill="#9dc844" opacity="0.96">
    <g transform="translate(238 720)">
      <path d="M42 12c-10 0-18 8-18 18c0 7 5 13 12 16c-8 2-14 9-14 18c0 11 9 20 20 20c8 0 14-5 18-12c4 7 10 12 18 12c11 0 20-9 20-20c0-9-6-16-14-18c7-3 12-9 12-16c0-10-8-18-18-18c-7 0-14 4-18 10c-4-6-11-10-18-10z"/>
      <path d="M60 50c2 26-4 50-18 72" fill="none" stroke="#9dc844" stroke-width="9" stroke-linecap="round"/>
    </g>
    <g transform="translate(780 720)">
      <path d="M42 12c-10 0-18 8-18 18c0 7 5 13 12 16c-8 2-14 9-14 18c0 11 9 20 20 20c8 0 14-5 18-12c4 7 10 12 18 12c11 0 20-9 20-20c0-9-6-16-14-18c7-3 12-9 12-16c0-10-8-18-18-18c-7 0-14 4-18 10c-4-6-11-10-18-10z"/>
      <path d="M60 50c2 26-4 50-18 72" fill="none" stroke="#9dc844" stroke-width="9" stroke-linecap="round"/>
    </g>
  </g>

  <path d="M320 898c52-32 113-49 220-49c107 0 168 17 220 49" fill="none" stroke="#f4efdf" stroke-width="5" stroke-linecap="round"/>
  <path d="M402 944c38-24 82-36 138-36c56 0 100 12 138 36" fill="none" stroke="#f4efdf" stroke-width="5" stroke-linecap="round"/>
</svg>
